<svg width="260" height="48" viewBox="0 0 260 48" fill="none" xmlns="http://www.w3.org/2000/svg">
<g clip-path="url(#clip0)">
<path d="M8.27148 17.0957C10.3446 17.0957 12.0312 15.4091 12.0312 13.3359C12.0312 11.2628 10.3446 9.57617 8.27148 9.57617C6.19835 9.57617 4.51172 11.2628 4.51172 13.3359C4.51172 15.4091 6.19835 17.0957 8.27148 17.0957ZM8.27148 10.6016C9.77922 10.6016 11.0059 11.8282 11.0059 13.3359C11.0059 14.8437 9.77922 16.0703 8.27148 16.0703C6.76375 16.0703 5.53711 14.8437 5.53711 13.3359C5.53711 11.8282 6.76375 10.6016 8.27148 10.6016Z" fill="#333333"/>
<path d="M31.4111 30.2207H30.409C30.7339 28.9764 30.8984 27.6913 30.8984 26.3926C30.8984 23.5346 30.0965 20.7521 28.5794 18.3459C28.4284 18.1064 28.1118 18.0346 27.8723 18.1857C27.6328 18.3367 27.5611 18.6533 27.7121 18.8928C28.7473 20.5347 29.4247 22.365 29.7134 24.2734H27.1977C26.7926 24.2734 26.4404 23.9852 26.3602 23.5881L26.0128 21.8688C25.9125 21.3725 25.6105 20.9312 25.1842 20.6581L23.0205 19.272C22.7741 19.1142 22.627 18.8452 22.627 18.5525V14.0837C24.0032 14.8478 25.2566 15.8439 26.3236 17.0453C26.5122 17.2575 26.8365 17.2756 27.0474 17.0881C27.2591 16.9001 27.2783 16.576 27.0903 16.3643C24.2234 13.1365 20.105 11.2852 15.791 11.2852C15.4623 11.2852 15.1312 11.2963 14.8032 11.3175C13.9401 8.53034 11.3385 6.5 8.27148 6.5C4.50215 6.5 1.43555 9.5666 1.43555 13.3359C1.43555 15.0062 2.23412 16.7791 3.09401 18.2039C1.51689 20.6443 0.683594 23.4719 0.683594 26.3926C0.683594 30.4279 2.25504 34.2217 5.10843 37.0752C7.96188 39.9286 11.7557 41.5 15.791 41.5C18.4211 41.5 21.0113 40.8137 23.2813 39.5153C25.4699 38.2634 27.3258 36.4681 28.6517 34.3223H33.4619C33.9331 34.3223 34.3164 33.939 34.3164 33.4678V33.126C34.3164 31.524 33.0131 30.2207 31.4111 30.2207ZM8.27148 7.52539C11.4754 7.52539 14.082 10.132 14.082 13.3359C14.082 15.5097 12.4482 18 11.4743 19.2909C10.0827 21.1356 8.69271 22.3544 8.27148 22.5491C7.85032 22.3545 6.46037 21.1356 5.06864 19.2909C4.0948 18 2.46094 15.5097 2.46094 13.3359C2.46094 10.132 5.06755 7.52539 8.27148 7.52539ZM4.3832 20.0831C5.08047 20.9885 5.85853 21.8529 6.57419 22.5172C7.72967 23.5898 8.10934 23.5898 8.27148 23.5898C8.43363 23.5898 8.8133 23.5898 9.96878 22.5172C10.6844 21.8529 11.4625 20.9885 12.1598 20.0831C13.2606 18.6535 15.1074 15.8761 15.1074 13.3359C15.1074 12.9947 15.0819 12.6593 15.0335 12.3313C15.2856 12.3179 15.539 12.3105 15.791 12.3105C16.7162 12.3105 17.6315 12.403 18.5254 12.5803V18.8262C18.5254 19.2392 18.2305 19.5928 17.8241 19.6669L15.7263 20.0492C15.1799 20.1487 14.7081 20.4822 14.432 20.9644L11.8435 25.4843C11.6916 25.7495 11.4075 25.9141 11.102 25.9141H5.7251C5.44195 25.9141 5.2124 26.1437 5.2124 26.4268C5.2124 26.71 5.44195 26.9395 5.7251 26.9395H11.102C11.7742 26.9395 12.3992 26.5771 12.7333 25.9939L15.3219 21.474C15.4474 21.2548 15.6618 21.1033 15.9102 21.058L18.0079 20.6758C18.9019 20.5129 19.5508 19.7351 19.5508 18.8263V12.8237C20.2541 13.0188 20.9405 13.2679 21.6036 13.5685C21.6025 13.582 21.6016 13.5956 21.6016 13.6095V18.5526C21.6016 19.1965 21.9252 19.7882 22.4674 20.1356L24.6311 21.5217C24.8248 21.6458 24.9622 21.8464 25.0077 22.072L25.3551 23.7914C25.5315 24.6648 26.3065 25.2988 27.1977 25.2988H29.8304C29.8584 25.6616 29.873 26.0264 29.873 26.3926C29.873 27.6941 29.696 28.9807 29.3465 30.2207H25.6774C25.6575 30.2018 25.6362 30.1838 25.6128 30.1678L20.3281 26.5646C19.9006 26.2732 19.4013 26.1191 18.884 26.1191H16.2699C15.9296 26.1191 15.622 26.3209 15.4863 26.6331C15.3506 26.9453 15.413 27.3078 15.6453 27.5567L18.1317 30.2207H13.5966L13.0799 29.2979C12.8078 28.813 12.2936 28.5117 11.738 28.5117H9.03164C8.72354 28.5117 8.44717 28.6709 8.2924 28.9373C8.1377 29.2037 8.13641 29.5224 8.28912 29.7901L8.84775 30.7676H2.40563C2.00833 29.5551 1.77174 28.2708 1.72061 26.9395H3.33252C3.61566 26.9395 3.84521 26.7099 3.84521 26.4268C3.84521 26.1436 3.61566 25.9141 3.33252 25.9141H1.71732C1.79758 23.5177 2.48042 21.2021 3.70863 19.1562C3.9481 19.5049 4.1786 19.8174 4.3832 20.0831ZM19.5343 30.2207L18.5773 29.1953H22.3307C22.3418 29.1953 22.3528 29.1944 22.3638 29.1937L23.8701 30.2207H19.5343ZM16.6632 27.1445H18.884C19.1944 27.1445 19.494 27.237 19.7505 27.4118L20.8623 28.1699H17.6202L16.6632 27.1445ZM2.7864 31.793H9.4338L10.5346 33.7191C10.7468 34.0911 11.1448 34.3223 11.5732 34.3223H13.5352V36.1707C13.5352 36.414 13.431 36.6463 13.2495 36.8084L10.3611 39.3852C6.94627 37.9526 4.21135 35.2117 2.7864 31.793ZM15.791 40.4746C14.2764 40.4746 12.8173 40.2333 11.449 39.7887L13.9321 37.5735C14.3315 37.2173 14.5605 36.706 14.5605 36.1707V34.3223H18.1359L15.6454 36.9862C15.4131 37.2349 15.3506 37.5974 15.4862 37.9096C15.6218 38.222 15.9296 38.4238 16.2702 38.4238H18.8843C19.4003 38.4238 19.8993 38.27 20.328 37.9787L25.7011 34.3223H27.4282C24.7975 38.1868 20.4974 40.4746 15.791 40.4746ZM17.6223 36.373H20.865L19.7514 37.1309C19.4938 37.3059 19.1939 37.3984 18.8842 37.3984H16.6636L17.6223 36.373ZM33.291 33.2969H25.5432C25.4403 33.2969 25.3397 33.3278 25.2547 33.3857L22.3705 35.3485C22.3648 35.3483 22.3593 35.3477 22.3535 35.3477H18.5809L19.6915 34.1597C19.9991 33.8518 19.7519 33.2824 19.3169 33.2969H11.5732C11.5121 33.2969 11.4555 33.264 11.425 33.2107L9.32559 29.5371H11.738C11.9232 29.5371 12.0948 29.6377 12.1855 29.7992L12.7503 30.8079C12.9009 31.0782 13.1867 31.2461 13.4962 31.2461H31.4111C32.4477 31.2461 33.291 32.0894 33.291 33.126V33.2969Z" fill="#333333"/>
</g>
<path d="M64.192 12.696V15.064H58.112V35H55.2V15.064H49.088V12.696H64.192ZM85.9205 35L80.6085 25.88H77.0885V35H74.1765V12.696H81.3765C83.0618 12.696 84.4805 12.984 85.6325 13.56C86.8058 14.136 87.6805 14.9147 88.2565 15.896C88.8325 16.8773 89.1205 17.9973 89.1205 19.256C89.1205 20.792 88.6725 22.1467 87.7765 23.32C86.9018 24.4933 85.5792 25.272 83.8085 25.656L89.4085 35H85.9205ZM77.0885 23.544H81.3765C82.9552 23.544 84.1392 23.16 84.9285 22.392C85.7178 21.6027 86.1125 20.5573 86.1125 19.256C86.1125 17.9333 85.7178 16.9093 84.9285 16.184C84.1605 15.4587 82.9765 15.096 81.3765 15.096H77.0885V23.544ZM113.229 30.04H103.501L101.709 35H98.6372L106.701 12.824H110.061L118.093 35H115.021L113.229 30.04ZM112.397 27.672L108.365 16.408L104.333 27.672H112.397ZM146.44 12.696L138.024 35H134.664L126.248 12.696H129.352L136.36 31.928L143.368 12.696H146.44ZM158.945 15.064V22.52H167.073V24.92H158.945V32.6H168.033V35H156.033V12.664H168.033V15.064H158.945ZM181.751 32.632H189.559V35H178.839V12.696H181.751V32.632ZM201.963 32.632H209.771V35H199.051V12.696H201.963V32.632ZM222.176 15.064V22.52H230.304V24.92H222.176V32.6H231.264V35H219.264V12.664H231.264V15.064H222.176ZM253.814 35L248.502 25.88H244.982V35H242.07V12.696H249.27C250.956 12.696 252.374 12.984 253.526 13.56C254.7 14.136 255.574 14.9147 256.15 15.896C256.726 16.8773 257.014 17.9973 257.014 19.256C257.014 20.792 256.566 22.1467 255.67 23.32C254.796 24.4933 253.473 25.272 251.702 25.656L257.302 35H253.814ZM244.982 23.544H249.27C250.849 23.544 252.033 23.16 252.822 22.392C253.612 21.6027 254.006 20.5573 254.006 19.256C254.006 17.9333 253.612 16.9093 252.822 16.184C252.054 15.4587 250.87 15.096 249.27 15.096H244.982V23.544Z" fill="#333333"/>
<defs>
<clipPath id="clip0">
<rect width="35" height="35" fill="white" transform="translate(0 6.5)"/>
</clipPath>
</defs>
</svg>
